<svg xmlns="http://www.w3.org/2000/svg" xmlns:xlink="http://www.w3.org/1999/xlink" width="15.594" height="16.781" viewBox="0 0 15.594 16.781">
  <metadata><?xpacket begin="﻿" id="W5M0MpCehiHzreSzNTczkc9d"?>
<x:xmpmeta xmlns:x="adobe:ns:meta/" x:xmptk="Adobe XMP Core 5.6-c142 79.160924, 2017/07/13-01:06:39        ">
   <rdf:RDF xmlns:rdf="http://www.w3.org/1999/02/22-rdf-syntax-ns#">
      <rdf:Description rdf:about=""/>
   </rdf:RDF>
</x:xmpmeta>
                                                                                                    
                                                                                                    
                                                                                                    
                                                                                                    
                                                                                                    
                                                                                                    
                                                                                                    
                                                                                                    
                                                                                                    
                                                                                                    
                                                                                                    
                                                                                                    
                                                                                                    
                                                                                                    
                                                                                                    
                                                                                                    
                                                                                                    
                                                                                                    
                                                                                                    
                                                                                                    
                           
<?xpacket end="w"?></metadata>
<defs>
    <style>
      .cls-1 {
        fill-rule: evenodd;
        filter: url(#filter);
      }
    </style>
    <filter id="filter" x="527.219" y="768.188" width="15.594" height="16.781" filterUnits="userSpaceOnUse">
      <feFlood result="flood" flood-color="#d7d7d7"/>
      <feComposite result="composite" operator="in" in2="SourceGraphic"/>
      <feBlend result="blend" in2="SourceGraphic"/>
    </filter>
  </defs>
  <path id="calendar_icon" data-name="calendar icon" class="cls-1" d="M542.453,770.953a1.149,1.149,0,0,0-.843-0.356h-1.2v-0.9a1.5,1.5,0,0,0-1.5-1.5h-0.6a1.5,1.5,0,0,0-1.5,1.5v0.9h-3.6v-0.9a1.5,1.5,0,0,0-1.5-1.5h-0.6a1.5,1.5,0,0,0-1.5,1.5v0.9h-1.2a1.216,1.216,0,0,0-1.2,1.2v11.984a1.214,1.214,0,0,0,1.2,1.2H541.61a1.214,1.214,0,0,0,1.2-1.2V771.8A1.149,1.149,0,0,0,542.453,770.953Zm-11.328,12.826h-2.7v-2.7h2.7v2.7Zm0-3.3h-2.7v-3h2.7v3Zm0-3.6h-2.7v-2.695h2.7v2.695Zm-0.211-4.283a0.284,0.284,0,0,1-.089-0.21v-2.7a0.287,0.287,0,0,1,.089-0.21,0.291,0.291,0,0,1,.211-0.089h0.6a0.291,0.291,0,0,1,.211.089,0.287,0.287,0,0,1,.089.21v2.7a0.284,0.284,0,0,1-.089.21,0.288,0.288,0,0,1-.211.09h-0.6A0.288,0.288,0,0,1,530.914,772.6Zm3.806,11.175h-3v-2.7h3v2.7Zm0-3.3h-3v-3h3v3Zm0-3.6h-3v-2.695h3v2.695Zm3.6,6.892h-3v-2.7h3v2.7Zm0-3.3h-3v-3h3v3Zm0-3.6h-3v-2.695h3v2.695ZM538.1,772.6a0.284,0.284,0,0,1-.089-0.21v-2.7a0.3,0.3,0,0,1,.3-0.3h0.6a0.291,0.291,0,0,1,.211.089,0.286,0.286,0,0,1,.088.21v2.7a0.283,0.283,0,0,1-.088.21,0.288,0.288,0,0,1-.211.09h-0.6A0.287,0.287,0,0,1,538.1,772.6Zm3.506,11.175h-2.7v-2.7h2.7v2.7Zm0-3.3h-2.7v-3h2.7v3Zm0-3.6h-2.7v-2.695h2.7v2.695Z" transform="translate(-527.219 -768.188)"/>
</svg>
