<svg xmlns="http://www.w3.org/2000/svg" width="17.75" height="25.906" viewBox="0 0 17.75 25.906">
  <metadata><?xpacket begin="﻿" id="W5M0MpCehiHzreSzNTczkc9d"?>
<x:xmpmeta xmlns:x="adobe:ns:meta/" x:xmptk="Adobe XMP Core 5.6-c142 79.160924, 2017/07/13-01:06:39        ">
   <rdf:RDF xmlns:rdf="http://www.w3.org/1999/02/22-rdf-syntax-ns#">
      <rdf:Description rdf:about=""/>
   </rdf:RDF>
</x:xmpmeta>
                                                                                                    
                                                                                                    
                                                                                                    
                                                                                                    
                                                                                                    
                                                                                                    
                                                                                                    
                                                                                                    
                                                                                                    
                                                                                                    
                                                                                                    
                                                                                                    
                                                                                                    
                                                                                                    
                                                                                                    
                                                                                                    
                                                                                                    
                                                                                                    
                                                                                                    
                                                                                                    
                           
<?xpacket end="w"?></metadata>
<defs>
    <style>
      .cls-1 {
        fill: #5f5f5f;
        fill-rule: evenodd;
      }
    </style>
  </defs>
  <path id="icon" class="cls-1" d="M430.131,669.633H426.3v2.186a2.12,2.12,0,0,1-2.116,2.116h-4.245a2.117,2.117,0,0,1-2.115-2.116v-2.186H414a0.818,0.818,0,0,0-.807.806v20.967a0.82,0.82,0,0,0,.807.806h5.389a1.359,1.359,0,0,1-.032-0.288v-3.672a1.371,1.371,0,0,1,1.354-1.354h2.709a1.371,1.371,0,0,1,1.354,1.354v3.672a1.359,1.359,0,0,1-.032.288h5.389a0.818,0.818,0,0,0,.807-0.806V670.439A0.816,0.816,0,0,0,430.131,669.633Zm-1.36,15.23a0.47,0.47,0,0,1-.344.146h-0.979a0.471,0.471,0,0,1-.344-0.146,0.467,0.467,0,0,1-.145-0.343v-0.979a0.47,0.47,0,0,1,.145-0.344,0.475,0.475,0,0,1,.344-0.146h0.979a0.5,0.5,0,0,1,.49.49v0.979A0.468,0.468,0,0,1,428.771,684.863Zm0.146,2.592v0.979a0.5,0.5,0,0,1-.49.488h-0.979a0.5,0.5,0,0,1-.489-0.488v-0.979a0.5,0.5,0,0,1,.489-0.489h0.979A0.5,0.5,0,0,1,428.917,687.455Zm-0.146-6.506a0.466,0.466,0,0,1-.344.146h-0.979a0.5,0.5,0,0,1-.489-0.49v-0.978a0.5,0.5,0,0,1,.489-0.489h0.979a0.5,0.5,0,0,1,.49.489v0.978A0.468,0.468,0,0,1,428.771,680.949Zm0-3.914a0.466,0.466,0,0,1-.344.146h-0.979a0.5,0.5,0,0,1-.489-0.49v-0.978a0.5,0.5,0,0,1,.489-0.489h0.979a0.5,0.5,0,0,1,.49.489v0.978A0.468,0.468,0,0,1,428.771,677.035Zm0-3.914a0.466,0.466,0,0,1-.344.146h-0.979a0.5,0.5,0,0,1-.489-0.49V671.8a0.5,0.5,0,0,1,.489-0.489h0.979a0.5,0.5,0,0,1,.49.489v0.978A0.468,0.468,0,0,1,428.771,673.121Zm-5.727,2.592a0.5,0.5,0,0,1,.489-0.489h0.979a0.5,0.5,0,0,1,.489.489v0.978a0.5,0.5,0,0,1-.489.49h-0.979a0.5,0.5,0,0,1-.489-0.49v-0.978Zm0,3.914a0.5,0.5,0,0,1,.489-0.489h0.979a0.5,0.5,0,0,1,.489.489v0.978a0.5,0.5,0,0,1-.489.49h-0.979a0.5,0.5,0,0,1-.489-0.49v-0.978Zm-6.017,5.236a0.471,0.471,0,0,1-.344.146H415.7a0.5,0.5,0,0,1-.489-0.489v-0.979a0.5,0.5,0,0,1,.489-0.49h0.979a0.475,0.475,0,0,1,.344.146,0.47,0.47,0,0,1,.145.344v0.979A0.467,0.467,0,0,1,417.027,684.863Zm0.145,2.592v0.979a0.5,0.5,0,0,1-.489.488H415.7a0.5,0.5,0,0,1-.489-0.488v-0.979a0.5,0.5,0,0,1,.489-0.489h0.979A0.5,0.5,0,0,1,417.172,687.455Zm-0.145-6.506a0.468,0.468,0,0,1-.344.146H415.7a0.5,0.5,0,0,1-.489-0.49v-0.978a0.5,0.5,0,0,1,.489-0.489h0.979a0.5,0.5,0,0,1,.489.489v0.978A0.467,0.467,0,0,1,417.027,680.949Zm0-3.914a0.468,0.468,0,0,1-.344.146H415.7a0.5,0.5,0,0,1-.489-0.49v-0.978a0.5,0.5,0,0,1,.489-0.489h0.979a0.5,0.5,0,0,1,.489.489v0.978A0.467,0.467,0,0,1,417.027,677.035Zm0-3.914a0.468,0.468,0,0,1-.344.146H415.7a0.5,0.5,0,0,1-.489-0.49V671.8a0.5,0.5,0,0,1,.489-0.489h0.979a0.5,0.5,0,0,1,.489.489v0.978A0.467,0.467,0,0,1,417.027,673.121Zm4.06,11.4a0.5,0.5,0,0,1-.49.49h-0.978a0.5,0.5,0,0,1-.489-0.49v-0.978a0.5,0.5,0,0,1,.489-0.49H420.6a0.5,0.5,0,0,1,.49.49v0.978Zm0-3.914a0.5,0.5,0,0,1-.49.49h-0.978a0.5,0.5,0,0,1-.489-0.49v-0.978a0.5,0.5,0,0,1,.489-0.489H420.6a0.5,0.5,0,0,1,.49.489v0.978Zm0-3.914a0.5,0.5,0,0,1-.49.49h-0.978a0.5,0.5,0,0,1-.489-0.49v-0.978a0.5,0.5,0,0,1,.489-0.489H420.6a0.5,0.5,0,0,1,.49.489v0.978Zm3.425,8.318h-0.978a0.5,0.5,0,0,1-.49-0.489v-0.979a0.5,0.5,0,0,1,.49-0.49h0.978a0.5,0.5,0,0,1,.49.49v0.979A0.5,0.5,0,0,1,424.512,685.009Zm-5.381-12.218a1.214,1.214,0,0,0,.812.3h4.245a1.219,1.219,0,0,0,.813-0.3c0.029-.024.059-0.044,0.087-0.072a1.227,1.227,0,0,0,.374-0.9v-4.243a1.277,1.277,0,0,0-1.274-1.274h-4.245a1.277,1.277,0,0,0-1.273,1.274v4.243a1.223,1.223,0,0,0,.374.9C419.071,672.747,419.1,672.766,419.131,672.791Zm0.671-3.158v-1.916a0.285,0.285,0,0,1,.283-0.282h0.565a0.285,0.285,0,0,1,.283.282v1.415H423.2v-1.415a0.285,0.285,0,0,1,.283-0.282h0.566a0.268,0.268,0,0,1,.2.083,0.273,0.273,0,0,1,.084.2v3.961a0.287,0.287,0,0,1-.282.283H423.48a0.287,0.287,0,0,1-.283-0.283v-1.415h-2.263v1.415a0.287,0.287,0,0,1-.283.283h-0.566a0.287,0.287,0,0,1-.283-0.283v-2.045h0Z" transform="translate(-413.188 -666.313)"/>
</svg>
