<svg xmlns="http://www.w3.org/2000/svg" width="23.06" height="23.188" viewBox="0 0 23.06 23.188">
  <metadata><?xpacket begin="﻿" id="W5M0MpCehiHzreSzNTczkc9d"?>
<x:xmpmeta xmlns:x="adobe:ns:meta/" x:xmptk="Adobe XMP Core 5.6-c142 79.160924, 2017/07/13-01:06:39        ">
   <rdf:RDF xmlns:rdf="http://www.w3.org/1999/02/22-rdf-syntax-ns#">
      <rdf:Description rdf:about=""/>
   </rdf:RDF>
</x:xmpmeta>
                                                                                                    
                                                                                                    
                                                                                                    
                                                                                                    
                                                                                                    
                                                                                                    
                                                                                                    
                                                                                                    
                                                                                                    
                                                                                                    
                                                                                                    
                                                                                                    
                                                                                                    
                                                                                                    
                                                                                                    
                                                                                                    
                                                                                                    
                                                                                                    
                                                                                                    
                                                                                                    
                           
<?xpacket end="w"?></metadata>
<defs>
    <style>
      .cls-1 {
        fill: #919191;
        fill-rule: evenodd;
      }
    </style>
  </defs>
  <path id="icon" class="cls-1" d="M1545.46,109.362l-4.87-4.9a9.874,9.874,0,0,0-1.03-12.676,9.726,9.726,0,0,0-13.82,0,9.834,9.834,0,0,0,6.91,16.788,9.67,9.67,0,0,0,5.69-1.845l4.87,4.9a1.581,1.581,0,0,0,2.25,0A1.613,1.613,0,0,0,1545.46,109.362Zm-17.47-5.938a6.681,6.681,0,0,1,0-9.374,6.563,6.563,0,0,1,9.32,0,6.656,6.656,0,0,1,0,9.374A6.569,6.569,0,0,1,1527.99,103.424Z" transform="translate(-1522.88 -88.906)"/>
</svg>
